<svg width="19" height="20" viewBox="0 0 19 20" fill="none" xmlns="http://www.w3.org/2000/svg">
<path fill-rule="evenodd" clip-rule="evenodd" d="M11.6767 0.567926L16.7549 3.41506C18.1422 4.19289 19 5.6507 19 7.2308V12.7692C19 14.3493 18.1422 15.8071 16.7549 16.5849L11.6767 19.4321C10.3261 20.1893 8.67389 20.1893 7.32327 19.4321L2.24512 16.5849C0.85776 15.8071 0 14.3493 0 12.7692V7.2308C0 5.6507 0.85776 4.19289 2.24512 3.41506L7.32327 0.567926C8.67389 -0.189309 10.3261 -0.189309 11.6767 0.567926ZM12.1799 11.8122L13.8682 8.75836L15.5574 9.88365L16.5398 8.10679L13.8682 6.32701L11.1976 11.1576L12.1799 11.8121L12.1799 11.8122ZM9.52148 14.1892L10.5039 12.4121L11.4862 13.0666L10.5038 14.8435L9.52148 14.1892ZM12.1799 13.5291L13.8682 14.6539L15.5574 11.5987L16.5402 12.2523L16.5398 12.2532L13.8682 17.0852L11.1976 15.3059L11.1962 15.305L12.1799 13.5291ZM16.2503 10.3459L17.2327 8.56895L18.215 9.22342L17.2326 11.0003L16.2503 10.3459ZM14.8646 11.1363L14.865 11.1361L13.8682 10.4719L13.1314 11.8043L13.0468 11.9574L12.8722 12.2732L12.8708 12.2757L12.8722 12.2766L13.8682 12.9403L14.865 11.1373L14.8655 11.1364L14.8646 11.1363Z" fill="url(#paint0_linear_2523)"/>
<defs>
<linearGradient id="paint0_linear_2523" x1="6.03903" y1="40.0451" x2="20.8421" y2="13.4952" gradientUnits="userSpaceOnUse">
<stop stop-color="#640AFF"/>
<stop offset="1" stop-color="#9B63FA"/>
</linearGradient>
</defs>
</svg>
