<svg width="19" height="20" viewBox="0 0 19 20" fill="none" xmlns="http://www.w3.org/2000/svg">
<ellipse cx="11.9262" cy="10.3999" rx="5.8617" ry="8" fill="#362842"/>
<path d="M11.7107 0.576492L16.7619 3.41165C18.1461 4.18856 19 5.63237 19 7.19583V12.8042C19 14.3676 18.1461 15.8114 16.7619 16.5884L11.7107 19.4235C10.3412 20.1922 8.65879 20.1922 7.28932 19.4235L2.2381 16.5884C0.853924 15.8114 0 14.3676 0 12.8042V7.19583C0 5.63237 0.853924 4.18856 2.2381 3.41165L7.28932 0.576492C8.65879 -0.192164 10.3412 -0.192164 11.7107 0.576492ZM16.5443 6.36426C15.7225 5.9501 14.5994 6.15499 13.1439 6.98516L11.125 8.10778C10.6302 8.38293 10.3251 8.89816 10.3269 9.45578L10.351 17.211C10.3514 17.339 10.3824 17.4651 10.4416 17.5791C10.6504 17.9816 11.1526 18.142 11.5632 17.9373L13.0171 17.2127C14.6565 16.3748 15.8952 15.2751 16.7251 13.9335C17.5452 12.5827 17.9253 11.0578 17.8659 9.3681C17.81 7.78716 17.3686 6.78261 16.5443 6.36426ZM13.2746 8.66381C14.9658 7.74137 15.8349 8.34517 15.8941 10.4607C15.9548 12.6291 15.0529 14.1897 13.1762 15.1432L12.7278 15.3668C12.6897 15.3858 12.6477 15.3959 12.605 15.3964C12.4514 15.3982 12.3255 15.2776 12.3237 15.1271L12.2586 9.70218C12.2549 9.3996 12.4221 9.11978 12.6931 8.97483L13.2746 8.66381Z" fill="url(#paint0_linear)"/>
<defs>
<linearGradient id="paint0_linear" x1="6.24859e-07" y1="20" x2="30.5425" y2="17.2725" gradientUnits="userSpaceOnUse">
<stop stop-color="#41B7FF"/>
<stop offset="1" stop-color="#00FF73"/>
</linearGradient>
</defs>
</svg>
