<svg width="49" height="52" viewBox="0 0 49 52" fill="none" xmlns="http://www.w3.org/2000/svg">
<g filter="url(#filter0_i)">
<path fill-rule="evenodd" clip-rule="evenodd" d="M43.21 8.87915L30.1137 1.47661C26.6305 -0.492202 22.3695 -0.492202 18.8863 1.47661L5.79004 8.87915C2.21212 10.9015 0 14.6918 0 18.8001V33.1999C0 37.3082 2.21212 41.0985 5.79004 43.1208L18.8863 50.5234C22.3695 52.4922 26.6305 52.4922 30.1137 50.5234L43.21 43.1208C46.7879 41.0985 49 37.3082 49 33.1999V18.8001C49 14.6918 46.7879 10.9015 43.21 8.87915ZM34.6157 36.0283V36.0492C34.6155 38.4722 35.2226 39.9933 36.4368 40.6123C37.6511 41.2313 39.2728 40.9566 41.3019 39.788C43.3771 38.5928 44.9604 37.0841 46.0519 35.2619C47.1587 33.4307 47.7122 31.3927 47.7124 29.1479L47.7125 28.0478C47.7126 26.9432 46.9367 26.4947 45.9795 27.046L42.0924 29.2846C41.3506 29.7119 40.7492 30.7522 40.7491 31.6082C40.7491 32.4643 41.3504 32.8119 42.0922 32.3847L44.5067 30.9941C44.5962 30.9426 44.6688 30.9845 44.6688 31.0878C44.6686 33.4931 43.5464 35.3419 41.3021 36.6345C40.1338 37.3073 39.2346 37.4421 38.6044 37.039C37.9743 36.6359 37.6592 35.7751 37.6593 34.4567L37.6596 30.0079C37.7179 29.5931 37.7486 29.1754 37.7517 28.7548C37.8917 27.9146 38.1916 27.0771 38.6514 26.2424C39.3124 25.0422 40.1963 24.1233 41.3031 23.4859C42.3791 22.8662 43.2092 22.7267 43.7932 23.0673C44.2658 23.3428 44.5471 23.8801 44.6373 24.6789C44.6894 25.1404 45.0171 25.3555 45.4462 25.1083L46.8961 24.2733C47.3471 24.0135 47.7229 23.3744 47.6912 22.8735C47.5783 21.0949 47.0245 19.9551 46.03 19.4541C44.908 18.8711 43.3324 19.1638 41.3033 20.3324C39.2589 21.5099 37.6294 23.1342 36.415 25.2054L36.3917 25.2457C36.369 25.2318 36.346 25.2183 36.3227 25.2051C35.3697 24.6672 34.1247 24.8409 32.5875 25.7262L27.68 28.5525C26.7228 29.1038 25.9468 30.4461 25.9467 31.5507L25.9456 46.5018C25.9455 47.4717 26.6268 47.8655 27.4673 47.3815C28.3077 46.8975 28.9891 45.7188 28.9892 44.7489L28.9894 41.6635C28.9895 40.559 29.7655 39.2167 30.7227 38.6654L32.5866 37.592C33.3281 37.1649 34.0045 36.6437 34.6157 36.0283ZM34.7044 30.253C34.6639 30.5973 34.6373 30.9446 34.6247 31.2948C34.5227 31.81 34.3277 32.3117 34.0395 32.8001C33.5937 33.5557 33.0095 34.1415 32.2871 34.5576L30.7229 35.4584C29.7658 36.0097 28.9899 35.5611 28.99 34.4566L28.9901 33.0047C28.9902 31.9002 29.7662 30.5579 30.7234 30.0066L32.2875 29.1058C33.01 28.6897 33.5941 28.6027 34.0398 28.8448C34.4512 29.0683 34.6727 29.5377 34.7044 30.253Z" fill="url(#paint0_linear)"/>
</g>
<defs>
<filter id="filter0_i" x="-14" y="0" width="63" height="70" filterUnits="userSpaceOnUse" color-interpolation-filters="sRGB">
<feFlood flood-opacity="0" result="BackgroundImageFix"/>
<feBlend mode="normal" in="SourceGraphic" in2="BackgroundImageFix" result="shape"/>
<feColorMatrix in="SourceAlpha" type="matrix" values="0 0 0 0 0 0 0 0 0 0 0 0 0 0 0 0 0 0 127 0" result="hardAlpha"/>
<feOffset dx="-14" dy="18"/>
<feGaussianBlur stdDeviation="37.5"/>
<feComposite in2="hardAlpha" operator="arithmetic" k2="-1" k3="1"/>
<feColorMatrix type="matrix" values="0 0 0 0 0.595833 0 0 0 0 0 0 0 0 0 0 0 0 0 1 0"/>
<feBlend mode="normal" in2="shape" result="effect1_innerShadow"/>
</filter>
<linearGradient id="paint0_linear" x1="54" y1="6" x2="69.5663" y2="34.0056" gradientUnits="userSpaceOnUse">
<stop offset="0.184287" stop-color="#FF0000"/>
<stop offset="0.746425" stop-color="#FFA011"/>
</linearGradient>
</defs>
</svg>
