<?xml version="1.0" encoding="utf-8"?>
<!-- Generator: Adobe Illustrator 24.0.1, SVG Export Plug-In . SVG Version: 6.00 Build 0)  -->
<svg version="1.1" id="Слой_1" xmlns="http://www.w3.org/2000/svg" xmlns:xlink="http://www.w3.org/1999/xlink" x="0px" y="0px"
	 viewBox="0 0 269 286.2" style="enable-background:new 0 0 269 286.2;" xml:space="preserve">
<style type="text/css">
	.st0{fill-rule:evenodd;clip-rule:evenodd;fill:url(#SVGID_1_);}
</style>
<g>
	
		<linearGradient id="SVGID_1_" gradientUnits="userSpaceOnUse" x1="-61.1801" y1="-202.3454" x2="151.8109" y2="175.6316" gradientTransform="matrix(1 0 0 -1 0 288)">
		<stop  offset="0" style="stop-color:#640AFF"/>
		<stop  offset="1" style="stop-color:#9B63FA"/>
	</linearGradient>
	<path class="st0" d="M165.3,8.1l71.9,40.7c19.6,11.1,31.8,32,31.8,54.6v79.2c0,22.6-12.1,43.5-31.8,54.6l-71.9,40.7
		c-19.1,10.8-42.5,10.8-61.6,0l-71.9-40.7C12.1,226.2,0,205.3,0,182.7v-79.2C0,80.9,12.1,60,31.8,48.9l71.9-40.7
		C122.8-2.7,146.2-2.7,165.3,8.1z M159,259.6c0,1.1,0.8,1.6,1.7,1l19.2-11.1c1-0.6,1.7-1.9,1.7-3V200c0-1.1,0.8-2.4,1.7-3l25.1-14.5
		c7.3-4.2,13.9-9.7,19.6-16.4c5.8-6.9,10.4-14.5,13.7-22.7c3.4-8.4,5.2-16.9,5.2-25.4v-2.8c0-8.7-1.7-15.2-5-19.6
		c-3.2-4.5-7.7-6.7-13.6-6.7c-5.7-0.2-12.4,1.8-19.9,6.2l-45.2,26.1c-2.4,1.4-4.3,4.7-4.3,7.5V259.6z M183.4,173.4
		c-1,0.6-1.7,0.1-1.7-1v-36.2c0-1.1,0.8-2.4,1.7-3l22.8-13.2c5.4-3.1,9.7-3.9,13.1-2.4c3.3,1.5,5,5.2,5,11.1v2
		c0,5.9-1.7,11.5-5,16.9c-3.3,5.3-7.7,9.6-13.1,12.7L183.4,173.4z"/>
</g>
</svg>
