<svg width="19" height="21" viewBox="0 0 19 21" fill="none" xmlns="http://www.w3.org/2000/svg">
<path fill-rule="evenodd" clip-rule="evenodd" d="M16.7549 3.45147L11.6767 0.573981C10.3261 -0.191327 8.67389 -0.191327 7.32327 0.573981L2.24512 3.45147C0.85776 4.23759 0 5.71095 0 7.3079V12.9053C0 14.5023 0.85776 15.9757 2.24512 16.7618L7.32327 19.6393C8.67389 20.4046 10.3261 20.4046 11.6767 19.6393L16.7549 16.7618C18.1422 15.9757 19 14.5023 19 12.9053V7.3079C19 5.71095 18.1422 4.23759 16.7549 3.45147ZM11.8531 11.0036L13.9038 9.81953L13.9037 11.0035L11.8531 12.1876L11.8531 11.0036ZM12.8781 16.2931V16.2931L11.8528 16.8852L11.8529 14.5172L12.8782 13.9251L12.8782 15.1091L13.9035 14.517L13.9035 15.701L12.8781 16.2931ZM14.8958 13.9443L15.9212 13.3522L15.9212 12.1683L16.9466 11.5763L16.9465 13.9443L15.9211 14.5363V14.5362L14.8957 15.1283L14.8958 13.9443ZM16.9466 8.06246L14.896 9.24653L14.8959 10.4305L16.9466 9.24645L16.9466 8.06246Z" fill="url(#paint0_linear_2959_6657)"/>
<defs>
<linearGradient id="paint0_linear_2959_6657" x1="-22.4044" y1="33.8174" x2="21.1423" y2="13.5102" gradientUnits="userSpaceOnUse">
<stop stop-color="#60F2EE"/>
<stop offset="1" stop-color="#48A9A6"/>
</linearGradient>
</defs>
</svg>
