<svg width="49" height="53" viewBox="0 0 49 53" fill="none" xmlns="http://www.w3.org/2000/svg">
<g filter="url(#filter0_i_2959_7322)">
<path fill-rule="evenodd" clip-rule="evenodd" d="M43.21 8.90116L30.1137 1.48027C26.6305 -0.493422 22.3695 -0.493422 18.8863 1.48027L5.79004 8.90116C2.21212 10.9285 0 14.7282 0 18.8467V33.2822C0 37.4007 2.21212 41.2004 5.79004 43.2277L18.8863 50.6486C22.3695 52.6223 26.6305 52.6223 30.1137 50.6486L43.21 43.2277C46.7879 41.2004 49 37.4007 49 33.2822V18.8467C49 14.7282 46.7879 10.9285 43.21 8.90116ZM30.3542 28.5477L35.8985 33.8932L29.9226 45.9364L33.6722 43.8067L39.4355 31.8842L33.7945 26.5935L30.3542 28.5477ZM41.483 22.2265L38.617 28.1625L40.508 29.6731L45.1478 20.1449L41.483 22.2265ZM38.5563 36.7025L40.4845 32.9782L45.0256 37.3358L41.573 39.2969L38.5563 36.7025Z" fill="url(#paint0_linear_2959_7322)"/>
</g>
<defs>
<filter id="filter0_i_2959_7322" x="0" y="-4" width="61" height="56.1289" filterUnits="userSpaceOnUse" color-interpolation-filters="sRGB">
<feFlood flood-opacity="0" result="BackgroundImageFix"/>
<feBlend mode="normal" in="SourceGraphic" in2="BackgroundImageFix" result="shape"/>
<feColorMatrix in="SourceAlpha" type="matrix" values="0 0 0 0 0 0 0 0 0 0 0 0 0 0 0 0 0 0 127 0" result="hardAlpha"/>
<feOffset dx="12" dy="-4"/>
<feGaussianBlur stdDeviation="29"/>
<feComposite in2="hardAlpha" operator="arithmetic" k2="-1" k3="1"/>
<feColorMatrix type="matrix" values="0 0 0 0 1 0 0 0 0 0.762623 0 0 0 0 0.379167 0 0 0 1 0"/>
<feBlend mode="normal" in2="shape" result="effect1_innerShadow_2959_7322"/>
</filter>
<linearGradient id="paint0_linear_2959_7322" x1="20.3104" y1="49.4554" x2="45.1919" y2="12.0645" gradientUnits="userSpaceOnUse">
<stop stop-color="#FFB133"/>
<stop offset="1" stop-color="#FF6F4F"/>
</linearGradient>
</defs>
</svg>
