<?xml version="1.0" encoding="utf-8"?>
<!-- Generator: Adobe Illustrator 26.3.1, SVG Export Plug-In . SVG Version: 6.00 Build 0)  -->
<svg version="1.1" id="Ebene_1" xmlns="http://www.w3.org/2000/svg" xmlns:xlink="http://www.w3.org/1999/xlink" x="0px" y="0px"
	 viewBox="0 0 128 128" style="enable-background:new 0 0 128 128;" xml:space="preserve">
<style type="text/css">
	.st0{fill:url(#SVGID_1_);}
	.st1{fill:#FFFFFF;}
</style>
<linearGradient id="SVGID_1_" gradientUnits="userSpaceOnUse" x1="0" y1="64" x2="128" y2="64">
	<stop  offset="0" style="stop-color:#78B03C"/>
	<stop  offset="1" style="stop-color:#295F1E"/>
</linearGradient>
<circle class="st0" cx="64" cy="64" r="64"/>
<g id="Layer_2">
	<path class="st1" d="M103.04,94.33V85.5H89.79c-2.65,0.01-5.23,0.81-7.42,2.3l0,0l-0.4,0.31l0,0l-0.53,0.44l-0.4,0.26l0,0
		c-1.69,1.49-2.96,3.39-3.71,5.52H63.3c-17.07,0-30.91-13.84-30.91-30.91S46.23,32.51,63.3,32.51s30.91,13.84,30.91,30.91v8.83
		H80.96c0-14.63-11.86-26.49-26.49-26.49h-8.83v8.83c0,14.63,11.86,26.49,26.49,26.49h30.91V63.42c0-21.95-17.79-39.74-39.74-39.74
		S23.56,41.47,23.56,63.42s17.79,39.74,39.74,39.74h14.04c1.87,5.28,6.85,8.82,12.45,8.83h13.25v-8.83h8.83v-8.83H103.04z"/>
</g>
</svg>
