<?xml version="1.0" encoding="utf-8"?>
<!-- Generator: Adobe Illustrator 26.0.3, SVG Export Plug-In . SVG Version: 6.00 Build 0)  -->
<svg version="1.1" id="MPS" xmlns="http://www.w3.org/2000/svg" xmlns:xlink="http://www.w3.org/1999/xlink" x="0px" y="0px"
	 viewBox="0 0 512 512" style="enable-background:new 0 0 512 512;" xml:space="preserve">
<style type="text/css">
	.st0{fill:#59C6F2;}
	.st1{fill:#FFFFFF;}
</style>
<circle class="st0" cx="255" cy="255.5" r="245.078"/>
<path class="st1" d="M320.6342,141.683v-0.0006l-17.4306-0.0002v0.0009c-0.0008,26.2994-21.0826,47.7438-47.3782,48.1929
	c-0.2751-0.0034-0.5494-0.0104-0.8253-0.0104c-0.276,0-0.5502,0.007-0.8253,0.0104c-26.2956-0.4491-47.3775-21.8935-47.3782-48.1929
	v-0.0006l-17.4306-0.0002v0.0009c-0.0096,23.4943,12.5443,45.2004,32.9135,56.9084c-31.4321,18.0782-42.2602,58.2098-24.182,89.6419
	c5.7827,10.0542,14.1255,18.397,24.1823,24.1751c-20.3694,11.7079-32.9235,33.4142-32.9139,56.9086v0.0006l17.4306,0.0002v-0.0009
	c0.0007-26.306,21.0928-47.7532,47.3952-48.1932c0.2695,0.0032,0.5381,0.0102,0.8084,0.0102s0.5389-0.007,0.8084-0.0102
	c26.3024,0.44,47.3944,21.8872,47.3952,48.1932v0.0006l17.4306,0.0002v-0.0009c0.0096-23.4944-12.5444-45.2006-32.9139-56.9086
	c31.4293-18.0832,42.2478-58.222,24.1646-89.6512c-5.7806-10.0469-14.118-18.3843-24.1642-24.1658
	C308.0899,186.8835,320.6438,165.1774,320.6342,141.683z M303.2036,255.4998c-0.0007,26.306-21.0928,47.7533-47.3952,48.1933
	c-0.2695-0.0032-0.5381-0.0102-0.8084-0.0102s-0.5389,0.007-0.8084,0.0102c-26.6164-0.4446-47.8329-22.3818-47.3884-48.9983
	c0.434-25.9834,21.3882-46.945,47.3715-47.3881c0.2751,0.0034,0.5494,0.0105,0.8253,0.0105s0.5502-0.007,0.8253-0.0105
	C282.121,207.7559,303.2028,229.2003,303.2036,255.4998z"/>
</svg>
