<?xml version="1.0" encoding="utf-8"?>
<!-- Generator: Adobe Illustrator 26.0.3, SVG Export Plug-In . SVG Version: 6.00 Build 0)  -->
<svg version="1.1" id="RIC-Token" xmlns="http://www.w3.org/2000/svg" xmlns:xlink="http://www.w3.org/1999/xlink" x="0px" y="0px"
	 viewBox="0 0 512 512" style="enable-background:new 0 0 512 512;" xml:space="preserve">
<style type="text/css">
	.st0{fill:url(#Outer_00000139996243445244871910000006699918210485612160_);}
	.st1{fill:url(#SVGID_1_);}
</style>
<linearGradient id="Outer_00000065770308025318933510000009853178898859264174_" gradientUnits="userSpaceOnUse" x1="-760" y1="1024" x2="-260" y2="1024" gradientTransform="matrix(-1 0 0 1 -254 -768)">
	<stop  offset="2.000000e-03" style="stop-color:#0E0501"/>
	<stop  offset="0.71" style="stop-color:#101015"/>
	<stop  offset="0.896" style="stop-color:#292A30"/>
</linearGradient>
<circle id="Outer" style="fill:url(#Outer_00000065770308025318933510000009853178898859264174_);" cx="256" cy="256" r="250"/>
<linearGradient id="SVGID_1_" gradientUnits="userSpaceOnUse" x1="67" y1="224" x2="445" y2="224" gradientTransform="matrix(1 0 0 -1 0 514)">
	<stop  offset="0.443" style="stop-color:#FFFFFF"/>
	<stop  offset="0.505" style="stop-color:#8D9ACA"/>
	<stop  offset="1" style="stop-color:#C8643B"/>
</linearGradient>
<path class="st1" d="M431.3,232.9l-60-9.9l45.8-19.3l10.3-41.7l-12.1-21.6l-59.1-17.4l30.1,43.5h0l0.2,0.2l-23.5,5.9l-57.9-40.1
	l-49.2,5.9l-49.2-5.9l-57.9,40.1l-23.4-5.9l0.2-0.3h0l30.1-43.5l-59.1,17.4L84.5,162l10.3,41.7l45.8,19.3l-60,9.9L67,270.1
	l41.1,20.1l38.9-13.8l5.6,41.8l25.5,60l12.4,32.6l60.2,42.6l5.1,3.6v0.1l0,0l0.1,0l0.1,0l0,0V457l5.1-3.6l60.2-42.6l12.4-32.6
	l25.5-60l5.6-41.8l38.9,13.8l41.1-20.1L431.3,232.9z M100.7,145.5l40.2-11.9l-21.8,31.5l-26.6-4.9L100.7,145.5z M91.8,166.3
	l23.4,4.4l-16.5,23.6L91.8,166.3z M146.5,270l-38,13.5L74.6,267l10.5-28.7l61.3-10.1L146.5,270z M146.5,218.8l-44.4-18.7l19.6-28.1
	l24.8,6.2L146.5,218.8z M256,384.5l-15.3-12.7l-19.3-51.4h69.2l-19.3,51.4L256,384.5z M258.4,314.3h-38.8L204,260.6H308l-15.5,53.7
	L258.4,314.3z M258.4,254.5h-56.2l-5.7-19.3l59.6-86.7l59.6,86.7l-5.7,19.4L258.4,254.5z M152.5,211.8v-34.3l55.9-38.7l43.2,5.2
	l0.3,0l-0.1,0.1L191,232L152.5,211.8z M183.8,375.9l-25.3-59.4l-5.6-42l45.4-12l15.8,54.6L201.3,344l-17.2,32.7L183.8,375.9z
	 M186.9,384.2l18-34.1l46.4,38.4l-1.6,1.3l-54.8,15.3L186.9,384.2z M256,449.6L200.1,410l55.9-15.7l55.9,15.7L256,449.6z M317,405.1
	l-54.8-15.3l-1.6-1.3l46.4-38.4l18,34.1L317,405.1z M353.5,316.5l-25.3,59.4l-0.3,0.8L310.7,344L297.9,317l15.8-54.6l45.4,12
	L353.5,316.5z M359.5,211.8L321,232l-60.7-87.9l-0.1-0.1l0.3,0l43.2-5.2l55.9,38.7V211.8z M413.2,194.2l-16.5-23.6l23.4-4.4
	L413.2,194.2z M371.1,133.6l40.2,11.9l8.2,14.7l-26.6,5L371.1,133.6z M365.5,178.2l24.8-6.2l19.6,28.1l-44.4,18.7L365.5,178.2z
	 M403.5,283.5l-38-13.5v-41.8l61.3,10.1l10.5,28.7L403.5,283.5z"/>
</svg>
