<?xml version="1.0" encoding="utf-8"?>
<!-- Generator: Adobe Illustrator 26.0.2, SVG Export Plug-In . SVG Version: 6.00 Build 0)  -->
<svg version="1.1" id="Ebene_1" xmlns="http://www.w3.org/2000/svg" xmlns:xlink="http://www.w3.org/1999/xlink" x="0px" y="0px"
	 viewBox="0 0 32 32" style="enable-background:new 0 0 32 32;" xml:space="preserve">
<style type="text/css">
	.st0{fill:#003371;}
	.st1{fill:#04795B;}
	.st2{fill:#0DB50A;}
	.st3{fill:#0AE33A;}
</style>
<path class="st0" d="M31.8211,16c0,8.73774-7.08336,15.8211-15.8211,15.8211C7.26223,31.8211,0.1789,24.73774,0.1789,16
	C0.1789,7.26223,7.26223,0.1789,16,0.1789C24.73774,0.1789,31.8211,7.26223,31.8211,16z"/>
<path class="st1" d="M25.2136,6.85338c-0.2713-0.27055-0.5935-0.48516-0.948-0.63159S23.5311,6,23.1473,6
	c-0.3838,0-0.7636,0.07536-1.1181,0.22179c-0.3547,0.14643-0.6768,0.36104-0.948,0.63159l-7.1157,7.09352
	c-0.2714,0.2704-0.4867,0.5915-0.6336,0.9449c-0.1469,0.3535-0.2225,0.7323-0.2225,1.1148c0,0.3826,0.0756,0.7614,0.2225,1.1148
	c0.1469,0.3535,0.3622,0.6744,0.6336,0.945l7.1157,7.0934c0.2712,0.2705,0.5933,0.4853,0.948,0.6316
	c0.3545,0.1465,0.7343,0.2217,1.1181,0.2217c0.3838,0,0.7638-0.0752,1.1183-0.2217c0.3545-0.1463,0.6767-0.3611,0.948-0.6316
	c0.2714-0.2704,0.4867-0.5916,0.6336-0.9449c0.1467-0.3535,0.2225-0.7322,0.2225-1.1148c0-0.3826-0.0758-0.7614-0.2225-1.1147
	c-0.1469-0.3535-0.3622-0.6747-0.6336-0.9451l-4.3628-4.346c-0.0909-0.0902-0.163-0.1974-0.2121-0.3154
	c-0.0492-0.118-0.0744-0.2445-0.0744-0.3723c0-0.1278,0.0252-0.2543,0.0744-0.3723c0.0491-0.118,0.1212-0.2252,0.2121-0.3154
	l4.3628-4.346c0.2714-0.2705,0.4867-0.5916,0.6336-0.945c0.1467-0.35339,0.2225-0.73221,0.2225-1.11477
	c0-0.38254-0.0758-0.76134-0.2225-1.11477C25.7003,7.44495,25.485,7.12384,25.2136,6.85338z"/>
<path class="st2" d="M21.0799,25.1589c1.141,1.1373,2.9908,1.1373,4.1318,0c1.1408-1.1373,1.1408-2.9815,0-4.1188l-7.1158-7.0936
	c-1.141-1.1374-2.9908-1.1374-4.1318,0c-1.1409,1.1374-1.1409,2.9814,0,4.1189L21.0799,25.1589z"/>
<path class="st3" d="M18.0979,13.9469l-7.1157-7.09352c-0.2713-0.27055-0.5934-0.48516-0.948-0.63159
	C9.67969,6.07536,9.29971,6,8.91597,6C8.53221,6,8.15215,6.07536,7.79762,6.22179C7.4431,6.36822,7.12098,6.58283,6.84967,6.85338
	C6.57829,7.12384,6.36301,7.44495,6.21612,7.79836C6.06924,8.15179,5.99365,8.53059,5.99365,8.91313
	c0,0.38256,0.07559,0.76138,0.22247,1.11477c0.14689,0.3534,0.36217,0.6745,0.63355,0.945l4.35973,4.346
	c0.0908,0.0902,0.1628,0.1974,0.2119,0.3154c0.0492,0.118,0.0745,0.2445,0.0745,0.3723c0,0.1278-0.0253,0.2543-0.0745,0.3723
	c-0.0491,0.118-0.1211,0.2252-0.2119,0.3154l-4.35973,4.346c-0.27138,0.2704-0.48666,0.5916-0.63355,0.9451
	c-0.14688,0.3533-0.22247,0.7321-0.22247,1.1147c0,0.3826,0.07559,0.7613,0.22247,1.1148
	c0.14689,0.3533,0.36217,0.6745,0.63355,0.9449c0.27131,0.2705,0.59343,0.4853,0.94795,0.6316
	c0.35453,0.1465,0.73459,0.2217,1.11835,0.2217c0.38374,0,0.76372-0.0752,1.11823-0.2217c0.3546-0.1463,0.6767-0.3611,0.948-0.6316
	l5.0478-5.0352l2.0679-2.0582c0.2713-0.2706,0.4866-0.5915,0.6336-0.945c0.1467-0.3534,0.2223-0.7322,0.2223-1.1148
	c0-0.3825-0.0756-0.7613-0.2223-1.1148C18.5845,14.5384,18.3692,14.2173,18.0979,13.9469z"/>
<path class="st3" d="M23.1453,11.8272c1.6135,0,2.9216-1.3039,2.9216-2.91244c0-1.6085-1.3081-2.91247-2.9216-2.91247
	c-1.6136,0-2.9217,1.30397-2.9217,2.91247C20.2236,10.5233,21.5317,11.8272,23.1453,11.8272z"/>
</svg>
